# xmcd CD database file
#
# Track frame offsets:
#	150
#	19608
#	38239
#	62086
#	93205
#	113225
#	141779
#	159923
#	172634
#	209124
#	229095
#
# Disc length: 3431 seconds
#
# Revision: 0
# Processed by: cddbd v1.5.2PL0 Copyright (c) Steve Scherf et al.
# Submitted via: CDex 1.70beta2
#
DISCID=870d650b
DTITLE=Gil Evans - New Bottle Old Wine - Great Jazz Standards
DYEAR=1958
DGENRE=Jazz
TTITLE0=Lester Leaps In
TTITLE1='Round Midnight
TTITLE2=Manteca
TTITLE3=Bird Feathers
TTITLE4=Davenport Blues
TTITLE5=Straight, No Chaser
TTITLE6=Ballad Of The Sad Young Man
TTITLE7=Joy Spring
TTITLE8=Django
TTITLE9=Chant Of The Weed
TTITLE10=La Nevada
EXTD=YEAR: 1958
EXTT0=
EXTT1=
EXTT2=
EXTT3=
EXTT4=
EXTT5=
EXTT6=
EXTT7=
EXTT8=
EXTT9=
EXTT10=
PLAYORDER=
